<svg width="20" height="18" viewBox="0 0 20 18" fill="none" xmlns="http://www.w3.org/2000/svg">
<g filter="url(#filter0_d)">
<path fill-rule="evenodd" clip-rule="evenodd" d="M15.6 1.75H4.4V11.375H2.8V1.09375C2.8 0.490547 3.2485 0 3.8 0H16.2C16.7515 0 17.2 0.490547 17.2 1.09375V11.375H15.6V1.75ZM14 12.25H17.6C17.821 12.25 18 12.4458 18 12.6875V13.5625C18 13.8042 17.821 14 17.6 14H2.4C2.179 14 2 13.8042 2 13.5625V12.6875C2 12.4458 2.179 12.25 2.4 12.25H9.2V10.5H14V12.25Z" fill="#ACACAC"/>
</g>
<defs>
<filter id="filter0_d" x="0" y="0" width="20" height="18" filterUnits="userSpaceOnUse" color-interpolation-filters="sRGB">
<feFlood flood-opacity="0" result="BackgroundImageFix"/>
<feColorMatrix in="SourceAlpha" type="matrix" values="0 0 0 0 0 0 0 0 0 0 0 0 0 0 0 0 0 0 127 0"/>
<feOffset dy="2"/>
<feGaussianBlur stdDeviation="1"/>
<feColorMatrix type="matrix" values="0 0 0 0 0.733333 0 0 0 0 0.733333 0 0 0 0 0.733333 0 0 0 1 0"/>
<feBlend mode="normal" in2="BackgroundImageFix" result="effect1_dropShadow"/>
<feBlend mode="normal" in="SourceGraphic" in2="effect1_dropShadow" result="shape"/>
</filter>
</defs>
</svg>
