<?xml version="1.0" encoding="UTF-8"?>
<svg width="385px" height="72px" viewBox="0 0 385 72" version="1.1" xmlns="http://www.w3.org/2000/svg" xmlns:xlink="http://www.w3.org/1999/xlink">
    <title>Group 3</title>
    <g id="logo" stroke="none" stroke-width="1" fill="none" fill-rule="evenodd">
        <g id="Artboard-Copy-4" transform="translate(-57.000000, -64.000000)">
            <g id="Group-3" transform="translate(57.000000, 64.000000)">
                <g id="Group" transform="translate(86.000000, 2.000000)" fill-rule="nonzero">
                    <g id="Group-2-Copy">
                        <path d="M14.525,59.926 C23.157,59.926 28.884,54.531 28.884,45.982 C28.884,29.05 7.968,25.149 7.968,13.28 C7.968,9.13 10.209,6.972 14.276,6.972 C18.177,6.972 20.418,9.794 20.667,15.936 C20.667,16.6 21.082,17.015 21.746,17.015 L26.975,17.015 C27.722,17.015 28.054,16.6 28.054,15.936 C27.722,6.225 22.327,0 14.193,0 C5.976,0 0.498,5.146 0.498,13.28 C0.498,29.216 21.331,33.117 21.331,45.982 C21.331,50.464 19.007,52.871 14.608,52.871 C10.126,52.871 7.719,49.717 7.553,43.409 C7.47,42.745 7.055,42.33 6.391,42.33 L1.162,42.33 C0.415,42.33 0,42.745 0,43.492 C0.332,53.535 5.893,59.926 14.525,59.926 Z M40.168,59.013 C40.915,59.013 41.33,58.598 41.33,57.851 L41.33,29.88 C41.33,25.979 43.322,23.406 46.808,23.406 C50.294,23.406 52.203,25.979 52.203,29.88 L52.203,57.851 C52.203,58.598 52.618,59.013 53.365,59.013 L58.179,59.013 C58.843,59.013 59.258,58.598 59.258,57.851 L59.258,29.88 C59.258,25.979 61.25,23.406 64.736,23.406 C68.222,23.406 70.131,25.979 70.131,29.88 L70.131,57.851 C70.131,58.598 70.546,59.013 71.293,59.013 L76.107,59.013 C76.771,59.013 77.186,58.598 77.186,57.851 L77.186,30.129 C77.186,22.244 72.289,16.6 64.736,16.6 C60.835,16.6 57.681,18.675 55.772,21.663 C53.863,18.675 50.626,16.6 46.808,16.6 C39.255,16.6 34.275,22.244 34.275,30.129 L34.275,57.851 C34.275,58.598 34.69,59.013 35.437,59.013 L40.168,59.013 Z M96.189,59.843 C104.157,59.843 109.137,54.365 109.137,46.729 L109.137,30.046 C109.137,22.244 104.074,16.6 96.189,16.6 C88.802,16.6 83.905,21.746 83.407,28.967 C83.407,29.631 83.822,30.129 84.486,30.129 L89.3,30.129 C90.047,30.129 90.379,29.88 90.462,29.133 C90.711,25.73 92.62,23.406 96.106,23.406 C99.841,23.406 102.082,25.979 102.082,29.714 L102.082,34.279 L95.857,34.279 C88.055,34.279 82.743,39.591 82.743,46.48 C82.743,54.282 88.138,59.843 96.189,59.843 Z M96.106,53.037 C92.205,53.037 89.881,50.464 89.881,46.48 C89.881,43.243 92.205,40.67 96.106,40.67 L102.082,40.67 L102.082,46.729 C102.082,50.547 99.924,53.037 96.106,53.037 Z M120.251,59.013 C120.998,59.013 121.413,58.598 121.413,57.851 L121.413,31.291 C121.413,26.809 124.235,24.07 128.551,24.07 L131.539,24.07 C132.203,24.07 132.618,23.655 132.618,22.991 L132.618,18.509 C132.618,17.762 132.203,17.347 131.539,17.347 L128.468,17.347 C120.085,17.347 114.275,22.908 114.275,31.872 L114.275,57.851 C114.275,58.598 114.69,59.013 115.437,59.013 L120.251,59.013 Z M154.862,59.262 C155.609,59.262 156.024,58.847 156.024,58.183 L156.024,53.618 C156.024,52.954 155.609,52.539 154.862,52.539 L153.949,52.539 C149.716,52.539 147.558,49.883 147.558,44.654 L147.558,23.987 L153.949,23.987 C154.613,23.987 155.028,23.572 155.028,22.908 L155.028,18.592 C155.028,17.928 154.613,17.513 153.949,17.513 L147.558,17.513 L147.558,6.806 C147.558,6.059 147.143,5.644 146.479,5.644 L141.665,5.644 C140.918,5.644 140.503,6.059 140.503,6.806 L140.503,17.513 L135.855,17.513 C135.191,17.513 134.776,17.928 134.776,18.592 L134.776,22.908 C134.776,23.572 135.191,23.987 135.855,23.987 L140.503,23.987 L140.503,44.571 C140.503,53.701 145.4,59.262 153.617,59.262 L154.862,59.262 Z" id="Smart" fill="#165A83"></path>
                        <path d="M175.272,59.926 C183.738,59.926 189.299,53.535 189.631,43.492 C189.631,42.745 189.216,42.33 188.552,42.33 L183.24,42.33 C182.576,42.33 182.161,42.662 182.161,43.409 C181.995,49.468 179.422,52.871 175.189,52.871 C171.039,52.871 168.632,50.049 168.632,45.401 L168.632,14.525 C168.632,9.877 171.039,7.055 175.189,7.055 C179.007,7.055 181.58,10.126 181.746,15.936 C181.746,16.683 182.161,17.015 182.825,17.015 L188.137,17.015 C188.884,17.015 189.216,16.6 189.216,15.936 C188.967,6.225 183.406,-1.84741111e-13 175.272,-1.84741111e-13 C166.806,-1.84741111e-13 161.079,5.976 161.079,14.94 L161.079,44.986 C161.079,53.95 166.806,59.926 175.272,59.926 Z M201.081,59.013 C201.828,59.013 202.243,58.598 202.243,57.851 L202.243,1.992 C202.243,1.328 201.828,0.913 201.081,0.913 L196.267,0.913 C195.52,0.913 195.105,1.328 195.105,1.992 L195.105,57.851 C195.105,58.598 195.52,59.013 196.267,59.013 L201.081,59.013 Z M220.91,59.843 C228.878,59.843 233.858,54.365 233.858,46.729 L233.858,30.046 C233.858,22.244 228.795,16.6 220.91,16.6 C213.523,16.6 208.626,21.746 208.128,28.967 C208.128,29.631 208.543,30.129 209.207,30.129 L214.021,30.129 C214.768,30.129 215.1,29.88 215.183,29.133 C215.432,25.73 217.341,23.406 220.827,23.406 C224.562,23.406 226.803,25.979 226.803,29.714 L226.803,34.279 L220.578,34.279 C212.776,34.279 207.464,39.591 207.464,46.48 C207.464,54.282 212.859,59.843 220.91,59.843 Z M220.827,53.037 C216.926,53.037 214.602,50.464 214.602,46.48 C214.602,43.243 216.926,40.67 220.827,40.67 L226.803,40.67 L226.803,46.729 C226.803,50.547 224.645,53.037 220.827,53.037 Z M253.612,59.926 C261.331,59.926 266.477,54.78 266.477,48.057 C266.477,34.113 247.304,36.354 247.304,28.386 C247.304,25.398 249.545,23.323 252.948,23.323 C256.517,23.323 258.426,25.647 258.675,28.884 C258.758,29.548 259.173,29.963 259.837,29.963 L264.734,29.963 C265.564,29.963 265.813,29.382 265.813,28.801 C265.564,22.327 261.663,16.6 252.782,16.6 C245.312,16.6 240.249,21.58 240.249,28.22 C240.249,41.832 259.339,39.591 259.339,47.974 C259.339,50.962 257.347,53.12 253.529,53.12 C249.213,53.12 247.221,50.796 246.889,46.563 C246.806,45.733 246.308,45.484 245.727,45.484 L240.913,45.484 C240,45.484 239.751,46.065 239.751,46.729 C240,54.033 244.98,59.926 253.612,59.926 Z M285.65,59.926 C293.369,59.926 298.515,54.78 298.515,48.057 C298.515,34.113 279.342,36.354 279.342,28.386 C279.342,25.398 281.583,23.323 284.986,23.323 C288.555,23.323 290.464,25.647 290.713,28.884 C290.796,29.548 291.211,29.963 291.875,29.963 L296.772,29.963 C297.602,29.963 297.851,29.382 297.851,28.801 C297.602,22.327 293.701,16.6 284.82,16.6 C277.35,16.6 272.287,21.58 272.287,28.22 C272.287,41.832 291.377,39.591 291.377,47.974 C291.377,50.962 289.385,53.12 285.567,53.12 C281.251,53.12 279.259,50.796 278.927,46.563 C278.844,45.733 278.346,45.484 277.765,45.484 L272.951,45.484 C272.038,45.484 271.789,46.065 271.789,46.729 C272.038,54.033 277.018,59.926 285.65,59.926 Z" id="Class" fill="#1E7DA3"></path>
                    </g>
                    <path d="M14.193,0 C22.327,0 27.722,6.225 28.054,15.936 C28.054,16.6 27.722,17.015 26.975,17.015 L26.975,17.015 L21.746,17.015 C21.082,17.015 20.667,16.6 20.667,15.936 C20.418,9.794 18.177,6.972 14.276,6.972 C10.209,6.972 7.968,9.13 7.968,13.28 C7.968,23.0179957 22.0475746,27.392344 27.1033727,38.0005604 L18.3245912,38.0004771 C12.555545,30.5617563 0.498,25.4036352 0.498,13.28 C0.498,5.146 5.976,0 14.193,0 Z M64.736,16.6 C72.289,16.6 77.186,22.244 77.186,30.129 L77.186,30.129 L77.185,38 L70.13,38 L70.131,29.88 C70.131,26.0676591 68.3077867,23.5236405 64.9712342,23.4099725 L64.736,23.406 C61.25,23.406 59.258,25.979 59.258,29.88 L59.258,29.88 L59.257,38 L52.202,38 L52.203,29.88 C52.203,26.0676591 50.3797867,23.5236405 47.0432342,23.4099725 L46.808,23.406 C43.322,23.406 41.33,25.979 41.33,29.88 L41.33,29.88 L41.329,38 L34.274,38 L34.275,30.129 C34.275,22.3566429 39.1137306,16.7617145 46.4858823,16.6034456 L46.808,16.6 C50.626,16.6 53.863,18.675 55.772,21.663 C57.681,18.675 60.835,16.6 64.736,16.6 Z M96.189,16.6 C104.074,16.6 109.137,22.244 109.137,30.046 L109.137,30.046 L109.137,38 L86.1646509,38.0004021 C88.4105871,35.7558174 91.6452272,34.3602511 95.5144186,34.2824345 L95.857,34.279 L102.082,34.279 L102.082,29.714 C102.082,25.979 99.841,23.406 96.106,23.406 C92.62,23.406 90.711,25.73 90.462,29.133 C90.379,29.88 90.047,30.129 89.3,30.129 L89.3,30.129 L84.486,30.129 C83.822,30.129 83.407,29.631 83.407,28.967 C83.905,21.746 88.802,16.6 96.189,16.6 Z M131.539,17.347 C132.203,17.347 132.618,17.762 132.618,18.509 L132.618,18.509 L132.618,22.991 C132.618,23.655 132.203,24.07 131.539,24.07 L131.539,24.07 L128.551,24.07 C124.235,24.07 121.413,26.809 121.413,31.291 L121.413,31.291 L121.412,38 L114.274,38 L114.275,31.872 C114.275,23.0259474 119.933111,17.4939313 128.138436,17.3498834 L128.468,17.347 Z M146.479,5.644 C147.143,5.644 147.558,6.059 147.558,6.806 L147.558,6.806 L147.558,17.513 L153.949,17.513 C154.613,17.513 155.028,17.928 155.028,18.592 L155.028,18.592 L155.028,22.908 C155.028,23.572 154.613,23.987 153.949,23.987 L153.949,23.987 L147.558,23.987 L147.558,38 L140.503,38 L140.503,23.987 L135.855,23.987 C135.191,23.987 134.776,23.572 134.776,22.908 L134.776,22.908 L134.776,18.592 C134.776,17.928 135.191,17.513 135.855,17.513 L135.855,17.513 L140.503,17.513 L140.503,6.806 C140.503,6.059 140.918,5.644 141.665,5.644 L141.665,5.644 Z" id="Combined-Shape" fill="#34749A"></path>
                    <path d="M175.272,2.13162821e-14 C183.406,2.13162821e-14 188.967,6.225 189.216,15.936 C189.216,16.6 188.884,17.015 188.137,17.015 L188.137,17.015 L182.825,17.015 C182.161,17.015 181.746,16.683 181.746,15.936 C181.58,10.126 179.007,7.055 175.189,7.055 C171.039,7.055 168.632,9.877 168.632,14.525 L168.632,14.525 L168.632,38 L161.079,38 L161.079,14.94 C161.079,6.09241558 166.658213,0.155724743 174.943548,0.00301723643 Z M201.081,0.913 C201.828,0.913 202.243,1.328 202.243,1.992 L202.243,1.992 L202.243,38 L195.105,38 L195.105,1.992 C195.105,1.37226667 195.466511,0.96944 196.122051,0.918484148 L196.267,0.913 Z M220.91,16.6 C228.795,16.6 233.858,22.244 233.858,30.046 L233.858,30.046 L233.858,38 L210.885651,38.0004021 C213.131587,35.7558174 216.366227,34.3602511 220.235419,34.2824345 L220.578,34.279 L226.803,34.279 L226.803,29.714 C226.803,25.979 224.562,23.406 220.827,23.406 C217.341,23.406 215.432,25.73 215.183,29.133 C215.1,29.88 214.768,30.129 214.021,30.129 L214.021,30.129 L209.207,30.129 C208.543,30.129 208.128,29.631 208.128,28.967 C208.626,21.746 213.523,16.6 220.91,16.6 Z M252.782,16.6 C261.663,16.6 265.564,22.327 265.813,28.801 C265.813,29.382 265.564,29.963 264.734,29.963 L264.734,29.963 L259.837,29.963 C259.173,29.963 258.758,29.548 258.675,28.884 C258.426,25.647 256.517,23.323 252.948,23.323 C249.545,23.323 247.304,25.398 247.304,28.386 C247.304,33.4581819 255.073285,34.3934717 260.720483,38.0002167 L245.902865,38.0009359 C242.729837,35.9738725 240.249,33.1270229 240.249,28.22 C240.249,21.58 245.312,16.6 252.782,16.6 Z M284.82,16.6 C293.701,16.6 297.602,22.327 297.851,28.801 C297.851,29.382 297.602,29.963 296.772,29.963 L296.772,29.963 L291.875,29.963 C291.211,29.963 290.796,29.548 290.713,28.884 C290.464,25.647 288.555,23.323 284.986,23.323 C281.583,23.323 279.342,25.398 279.342,28.386 C279.342,33.4581819 287.111285,34.3934717 292.758483,38.0002167 L277.940865,38.0009359 C274.767837,35.9738725 272.287,33.1270229 272.287,28.22 C272.287,21.58 277.35,16.6 284.82,16.6 Z" id="Combined-Shape" fill="#57A9CA"></path>
                </g>
                <g id="Group-2">
                    <path d="M62.5,0 C66.6421356,-7.6089797e-16 70,3.35786438 70,7.5 L70,46.224 L60,36.224 L60,12.5 C60,11.1745166 58.9684641,10.0899613 57.6643757,10.0053177 L57.5,10 L12.5,10 C11.1192881,10 10,11.1192881 10,12.5 L10,12.5 L10,51.5 C10,52.8807119 11.1192881,54 12.5,54 L12.5,54 L42.421,54 L52.421,64 L7.5,64 C3.35786438,64 5.07265313e-16,60.6421356 0,56.5 L0,7.5 C-5.07265313e-16,3.35786438 3.35786438,7.6089797e-16 7.5,0 L62.5,0 Z" id="Combined-Shape" fill="#34749A"></path>
                    <path d="M50,40.0191314 C52.1642266,28.0063771 53.8308933,22 55,22 C56.1691067,22 57.8357734,28.0063771 60,40.0191314 L60,73 C60,74.6568542 58.6568542,76 57,76 L53,76 C51.3431458,76 50,74.6568542 50,73 L50,40.0191314 L50,40.0191314 Z" id="Rectangle" fill="#57A9CA" transform="translate(55.000000, 49.000000) rotate(-45.000000) translate(-55.000000, -49.000000) "></path>
                </g>
            </g>
        </g>
    </g>
</svg>